<svg width="38" height="38" viewBox="0 0 38 38" fill="none" xmlns="http://www.w3.org/2000/svg">
<path d="M21 25C25.9706 25 30 20.9706 30 16C30 11.0294 25.9706 7 21 7H11C9.89543 7 9 7.89543 9 9V29C9 30.1046 9.89543 31 11 31H19C20.1046 31 21 30.1046 21 29V25ZM21 25C16.0294 25 12 20.9706 12 16V15.4932C12 14.2137 13.1848 13.2633 14.4339 13.5409L16.0661 13.9036C16.3519 13.9671 16.6481 13.9671 16.9339 13.9036L18.5661 13.5409C19.8152 13.2633 21 14.2137 21 15.4932V16V25Z" stroke="black" stroke-width="2"/>
</svg>
